<svg width="76" height="76" fill="none" xmlns="http://www.w3.org/2000/svg"><rect opacity=".137" width="76" height="76" rx="11" fill="#717CFF"/><path d="M36.945 32.034V35h-13.13v-2.531l6.209-6.658c.624-.694 1.116-1.305 1.476-1.832.36-.537.62-1.016.778-1.438.167-.43.25-.839.25-1.226 0-.58-.096-1.076-.29-1.49a2.16 2.16 0 0 0-.856-.975c-.37-.228-.826-.343-1.371-.343-.58 0-1.081.14-1.503.422-.413.281-.73.673-.95 1.174-.21.5-.316 1.067-.316 1.7h-3.81c0-1.142.273-2.188.818-3.137a5.994 5.994 0 0 1 2.307-2.281c.993-.572 2.17-.857 3.533-.857 1.345 0 2.478.22 3.401.659.932.43 1.635 1.055 2.11 1.872.483.809.725 1.775.725 2.9 0 .633-.101 1.253-.303 1.86a8.394 8.394 0 0 1-.87 1.792 14.42 14.42 0 0 1-1.345 1.793 41.09 41.09 0 0 1-1.754 1.886l-3.335 3.744h8.226Zm6.263-8.28h2.03c.65 0 1.186-.11 1.608-.33.422-.228.734-.544.936-.948.211-.413.317-.892.317-1.437 0-.493-.097-.928-.29-1.306a1.967 1.967 0 0 0-.857-.896c-.387-.22-.875-.33-1.464-.33-.465 0-.896.093-1.292.277a2.366 2.366 0 0 0-.949.778c-.237.334-.356.738-.356 1.213h-3.81c0-1.055.281-1.973.844-2.755.571-.783 1.336-1.393 2.294-1.833.958-.44 2.012-.66 3.164-.66 1.3 0 2.439.212 3.414.634.976.413 1.736 1.024 2.281 1.832.545.809.817 1.81.817 3.006 0 .607-.14 1.195-.421 1.767a4.959 4.959 0 0 1-1.213 1.529c-.519.448-1.152.808-1.899 1.081-.747.264-1.586.395-2.518.395h-2.636v-2.017Zm0 2.888v-1.965h2.636c1.046 0 1.965.119 2.756.356.79.237 1.454.58 1.99 1.028.536.44.94.963 1.213 1.57.273.597.409 1.26.409 1.99 0 .897-.172 1.696-.514 2.4a5.024 5.024 0 0 1-1.45 1.766 6.62 6.62 0 0 1-2.163 1.108 9.432 9.432 0 0 1-2.702.369c-.809 0-1.604-.11-2.386-.33a7.099 7.099 0 0 1-2.11-1.015 5.222 5.222 0 0 1-1.503-1.714c-.369-.694-.553-1.516-.553-2.465h3.81c0 .492.123.931.369 1.318s.584.69 1.015.91c.44.22.927.33 1.463.33.607 0 1.125-.11 1.556-.33.44-.229.773-.545 1.002-.95.237-.413.356-.892.356-1.437 0-.703-.128-1.265-.383-1.687a2.27 2.27 0 0 0-1.094-.95c-.474-.201-1.037-.302-1.687-.302h-2.03ZM27.217 59h-2.84l.018-2.373h2.822c.586 0 1.08-.14 1.485-.422.41-.281.72-.7.932-1.257.217-.562.325-1.254.325-2.074v-.554c0-.615-.061-1.154-.185-1.617-.117-.469-.293-.858-.527-1.169a2.205 2.205 0 0 0-.879-.712 2.845 2.845 0 0 0-1.195-.237h-2.848v-2.382h2.848c.867 0 1.661.15 2.382.448a5.329 5.329 0 0 1 1.88 1.266 5.605 5.605 0 0 1 1.231 1.942c.293.744.44 1.57.44 2.479v.536c0 .902-.147 1.728-.44 2.478a5.672 5.672 0 0 1-1.222 1.943 5.51 5.51 0 0 1-1.872 1.265c-.715.293-1.5.44-2.355.44Zm-1.072-12.797V59H23.06V46.203h3.085Zm13.034 12.973c-.774 0-1.465-.12-2.075-.36a4.516 4.516 0 0 1-1.546-1.011 4.488 4.488 0 0 1-.958-1.477 4.824 4.824 0 0 1-.326-1.767v-.334c0-.697.097-1.341.29-1.933.194-.598.48-1.12.862-1.564.38-.446.858-.791 1.432-1.038.575-.252 1.243-.377 2.004-.377.674 0 1.278.108 1.81.325.534.216.985.527 1.354.931.375.405.66.894.853 1.468.2.574.299 1.219.299 1.934v1.204h-7.77v-1.855h4.878v-.228c.006-.317-.05-.586-.167-.809a1.15 1.15 0 0 0-.492-.51 1.644 1.644 0 0 0-.791-.175c-.322 0-.589.07-.8.21-.205.141-.366.334-.483.58-.112.24-.19.52-.238.836-.046.316-.07.65-.07 1.002v.334c0 .351.047.67.14.958.1.287.241.533.423.738.187.199.41.354.668.466.263.111.562.167.896.167.404 0 .803-.076 1.195-.229.393-.152.73-.404 1.011-.756l1.345 1.6c-.194.275-.469.542-.826.8a4.57 4.57 0 0 1-1.266.633 5.385 5.385 0 0 1-1.652.237Zm9.22-2.285c.275 0 .51-.05.703-.15.199-.105.348-.252.448-.44.105-.193.155-.424.15-.694h2.785c.006.715-.17 1.342-.527 1.881-.352.534-.832.95-1.441 1.248-.604.293-1.287.44-2.048.44-.744 0-1.395-.12-1.951-.36a3.905 3.905 0 0 1-1.398-1.02 4.49 4.49 0 0 1-.835-1.538 6.41 6.41 0 0 1-.272-1.907v-.203c0-.685.09-1.32.272-1.907a4.385 4.385 0 0 1 .835-1.538c.375-.44.838-.78 1.389-1.02.556-.245 1.204-.368 1.942-.368.791 0 1.489.149 2.092.448.61.299 1.087.732 1.433 1.3.345.569.515 1.257.51 2.066h-2.787a1.917 1.917 0 0 0-.132-.773 1.186 1.186 0 0 0-.44-.546c-.192-.14-.442-.21-.746-.21-.305 0-.55.067-.738.202a1.273 1.273 0 0 0-.431.562 3.147 3.147 0 0 0-.193.809c-.03.304-.044.63-.044.975v.203c0 .351.014.682.044.993.035.304.102.574.202.808.1.229.243.41.43.545.188.13.437.194.747.194Z" fill="#717CFF"/></svg>