<svg width="129" height="21" fill="none" xmlns="http://www.w3.org/2000/svg"><path d="M39.531 3.625V15h-2.633V6.594l-2.593.758v-2l4.984-1.727h.242Zm11.36 0v1.406L46.64 15h-2.782l4.258-9.344h-5.43V3.625h8.204Zm10.343 2.39L58.461 15h-2.945l4.18-11.375h1.867l-.329 2.39ZM63.531 15 60.75 6.016l-.36-2.391h1.891L66.484 15h-2.953Zm-.11-4.242v2.117h-5.835v-2.117h5.836Zm6.056-2.586V18.25h-2.633V6.547h2.453l.18 1.625Zm5.187 2.5v.164c0 .614-.07 1.185-.21 1.71-.141.527-.35.985-.626 1.376-.276.39-.62.695-1.031.914-.406.213-.878.32-1.414.32-.505 0-.94-.112-1.305-.336a2.788 2.788 0 0 1-.914-.93 5.585 5.585 0 0 1-.594-1.359 12.48 12.48 0 0 1-.36-1.617v-.21c.09-.61.21-1.175.36-1.696.151-.526.35-.985.594-1.375.245-.39.547-.696.906-.914.365-.219.8-.328 1.305-.328.537 0 1.008.101 1.414.304a2.78 2.78 0 0 1 1.031.875c.282.375.493.826.633 1.352.14.526.211 1.11.211 1.75Zm-2.633.164v-.164c0-.328-.023-.628-.07-.899a2.48 2.48 0 0 0-.227-.718 1.143 1.143 0 0 0-.398-.47 1.101 1.101 0 0 0-.617-.163c-.281 0-.518.044-.711.133a1.028 1.028 0 0 0-.453.39c-.11.172-.188.388-.235.649-.041.255-.06.554-.054.898v.64c-.01.397.028.746.117 1.048.088.297.242.528.46.695.22.167.516.25.891.25.25 0 .459-.057.625-.172.167-.12.3-.284.399-.492.099-.214.17-.458.21-.734.042-.277.063-.573.063-.891Zm6.461-2.195V15H75.86V6.547h2.461l.172 2.094Zm2.5-2.157-.047 2.446a38.35 38.35 0 0 0-.422-.04 5.216 5.216 0 0 0-.445-.023c-.307 0-.573.037-.797.11a1.346 1.346 0 0 0-.547.312c-.14.135-.244.307-.312.516-.063.208-.091.45-.086.726l-.477-.312c0-.568.055-1.084.164-1.547.115-.469.276-.873.485-1.211a2.3 2.3 0 0 1 .758-.79c.296-.187.63-.28 1-.28.13 0 .257.007.382.023.13.016.245.04.344.07Zm12.79 6.485V15h-7.938v-1.719L89.5 9.437c.323-.37.583-.7.781-.992a3.97 3.97 0 0 0 .43-.804c.094-.24.14-.456.14-.649 0-.328-.049-.601-.148-.82a1.048 1.048 0 0 0-.422-.508 1.254 1.254 0 0 0-.68-.172c-.27 0-.507.078-.71.235-.204.156-.362.37-.477.64-.11.271-.164.576-.164.914h-2.64c0-.698.169-1.336.507-1.914a3.8 3.8 0 0 1 1.43-1.383c.61-.349 1.315-.523 2.117-.523.839 0 1.542.13 2.11.39.567.261.994.639 1.28 1.133.292.49.438 1.081.438 1.774 0 .396-.062.776-.187 1.14a4.9 4.9 0 0 1-.54 1.086c-.234.355-.52.72-.859 1.094-.333.375-.713.774-1.14 1.195l-1.47 1.696h4.485Zm9.241-4.696v2.079c0 .817-.096 1.528-.289 2.132-.187.604-.458 1.104-.812 1.5-.349.396-.766.69-1.25.883a4.295 4.295 0 0 1-1.602.29c-.468 0-.906-.06-1.312-.18a3.501 3.501 0 0 1-1.102-.563 3.623 3.623 0 0 1-.836-.953 4.618 4.618 0 0 1-.539-1.344 7.588 7.588 0 0 1-.187-1.765V8.273c0-.822.094-1.533.281-2.132.193-.605.466-1.105.82-1.5.355-.396.774-.69 1.258-.883a4.296 4.296 0 0 1 1.602-.29c.468 0 .903.063 1.304.188.407.12.774.308 1.102.563.328.25.607.565.836.945.234.38.414.83.539 1.352.125.515.187 1.101.187 1.757Zm-2.632 2.399V7.937c0-.364-.021-.682-.063-.953-.036-.27-.094-.5-.172-.687a1.364 1.364 0 0 0-.273-.453.953.953 0 0 0-.375-.258 1.152 1.152 0 0 0-.453-.086 1.18 1.18 0 0 0-.563.133c-.161.083-.3.219-.414.406-.115.188-.203.438-.266.75a6.499 6.499 0 0 0-.085 1.149v2.734c0 .37.018.693.054.969.042.27.1.502.172.695.078.187.172.341.281.46a.99.99 0 0 0 .375.25c.141.053.295.079.461.079.203 0 .386-.042.547-.125.162-.083.3-.219.414-.406.12-.193.209-.446.266-.758.062-.318.094-.706.094-1.164Zm11.953 2.297V15h-7.938v-1.719l3.656-3.844c.323-.37.584-.7.782-.992.198-.297.341-.565.429-.804.094-.24.141-.456.141-.649 0-.328-.049-.601-.148-.82a1.053 1.053 0 0 0-.422-.508 1.257 1.257 0 0 0-.68-.172c-.271 0-.508.078-.711.235-.203.156-.362.37-.476.64a2.41 2.41 0 0 0-.165.914h-2.64c0-.698.169-1.336.508-1.914.343-.578.82-1.039 1.429-1.383.61-.349 1.315-.523 2.118-.523.838 0 1.541.13 2.109.39.568.261.995.639 1.281 1.133.292.49.438 1.081.438 1.774 0 .396-.063.776-.188 1.14a4.917 4.917 0 0 1-.539 1.086 9.348 9.348 0 0 1-.859 1.094c-.334.375-.714.774-1.141 1.195l-1.469 1.696h4.485Zm9.242-4.696v2.079c0 .817-.096 1.528-.289 2.132-.188.604-.458 1.104-.813 1.5a3.24 3.24 0 0 1-1.25.883 4.293 4.293 0 0 1-1.601.29c-.469 0-.906-.06-1.313-.18a3.498 3.498 0 0 1-1.101-.563 3.615 3.615 0 0 1-.836-.953 4.601 4.601 0 0 1-.539-1.344 7.587 7.587 0 0 1-.188-1.765V8.273c0-.822.094-1.533.282-2.132.192-.605.466-1.105.82-1.5.354-.396.773-.69 1.258-.883a4.293 4.293 0 0 1 1.601-.29c.469 0 .904.063 1.305.188.406.12.773.308 1.101.563.329.25.607.565.836.945.235.38.414.83.539 1.352.125.515.188 1.101.188 1.757Zm-2.633 2.399V7.937c0-.364-.021-.682-.062-.953-.037-.27-.094-.5-.172-.687a1.355 1.355 0 0 0-.274-.453.947.947 0 0 0-.375-.258 1.149 1.149 0 0 0-.453-.086c-.208 0-.396.044-.562.133-.162.083-.3.219-.414.406-.115.188-.203.438-.266.75a6.526 6.526 0 0 0-.086 1.149v2.734c0 .37.018.693.055.969.041.27.099.502.172.695.078.187.172.341.281.46a.984.984 0 0 0 .375.25c.14.053.294.079.461.079.203 0 .385-.042.547-.125a1.07 1.07 0 0 0 .414-.406c.12-.193.208-.446.265-.758.063-.318.094-.706.094-1.164Z" fill="#565656"/><path fill-rule="evenodd" clip-rule="evenodd" d="M6.387 5.664h1.444v-.76h5.775v.76h1.444v-.76h1.444v2.28H4.944v-2.28h1.443v.76Zm-1.443 3.04v7.599h11.55v-7.6H4.944Zm2.887-5.32h5.775v-.759h1.444v.76h1.444c.797 0 1.444.68 1.444 1.52v11.398c0 .839-.647 1.52-1.444 1.52H4.944c-.798 0-1.444-.681-1.444-1.52V4.905c0-.84.646-1.52 1.444-1.52h1.443v-.76h1.444v.76Z" fill="#565656"/></svg>