<svg width="76" height="76" fill="none" xmlns="http://www.w3.org/2000/svg"><rect width="76" height="76" rx="38" fill="#70CE88"/><path fill-rule="evenodd" clip-rule="evenodd" d="M43.126 22.083H30.192c-1.372 0-2.484 1.178-2.484 2.63v23.67c0 1.452 1.112 2.63 2.484 2.63H47.58c1.371 0 2.483-1.178 2.483-2.63V29.427l-6.936-7.345Zm-12.934 2.63h9.935v5.26c0 1.452 1.112 2.63 2.484 2.63h4.968v15.78H30.192v-23.67Zm12.42 5.26v-4.715l4.452 4.715h-4.453Zm.363 5.645-5.331 5.645-2.848-3.015-1.756 1.86 4.604 4.874 7.087-7.505-1.756-1.86Z" fill="#262626"/></svg>