<svg width="76" height="76" fill="none" xmlns="http://www.w3.org/2000/svg"><rect width="76" height="76" rx="38" fill="#5C96FF"/><path fill-rule="evenodd" clip-rule="evenodd" d="m41.096 24.387 8.967 8.966v18.39h-8.994v-7.71a2.57 2.57 0 1 0-5.138 0v7.71h-8.993V33.094l8.708-8.708a3.854 3.854 0 0 1 5.45 0Zm-11.59 9.772 7.956-7.955a1.285 1.285 0 0 1 1.817 0l8.214 8.213v14.756H43.64v-5.14a5.139 5.139 0 0 0-10.278 0v5.14h-3.854V34.159Z" fill="#2D2D2D"/><mask id="a" style="mask-type:alpha" maskUnits="userSpaceOnUse" x="26" y="23" width="25" height="29"><path fill-rule="evenodd" clip-rule="evenodd" d="m41.096 24.387 8.967 8.966v18.39h-8.994v-7.71a2.57 2.57 0 1 0-5.138 0v7.71h-8.993V33.094l8.708-8.708a3.854 3.854 0 0 1 5.45 0Zm-11.59 9.772 7.956-7.955a1.285 1.285 0 0 1 1.817 0l8.214 8.213v14.756H43.64v-5.14a5.139 5.139 0 0 0-10.278 0v5.14h-3.854V34.159Z" fill="#fff"/></mask></svg>