<svg width="76" height="76" fill="none" xmlns="http://www.w3.org/2000/svg"><rect width="76" height="76" rx="38" fill="#717CFF"/><path d="M48.204 27.756a1.512 1.512 0 0 0-.108 2.03c2.231 2.801 3.4 6.632 2.354 10.648-1.215 4.693-4.893 8.2-9.555 9.14-7.846 1.553-14.724-4.509-14.724-12.094 0-6.278 4.693-11.447 10.77-12.201v3.108a9.228 9.228 0 0 0-7.585 10.508c.6 4.016 3.939 7.247 7.97 7.74 5.6.692 10.386-3.678 10.386-9.155a9.167 9.167 0 0 0-1.585-5.17c-.523-.77-1.647-.815-2.308-.17l-.016.016c-.523.523-.569 1.339-.169 1.954a6.15 6.15 0 0 1 .754 5.108 6.138 6.138 0 0 1-4.523 4.262 6.154 6.154 0 0 1-7.54-6c0-2.862 1.97-5.247 4.616-5.94v3.293c-.923.539-1.538 1.508-1.538 2.647a3.086 3.086 0 0 0 3.077 3.077 3.086 3.086 0 0 0 3.077-3.077 3.028 3.028 0 0 0-1.538-2.647V23.186c0-.6-.493-1.092-1.093-1.092-8.247-.308-15.355 6.246-15.801 14.463-.554 10.078 8.323 18.186 18.478 16.001a15.487 15.487 0 0 0 11.925-11.801c1.092-4.862-.308-9.478-3.032-12.878-.569-.723-1.646-.77-2.292-.123Z" fill="#37474F"/><mask id="a" style="mask-type:alpha" maskUnits="userSpaceOnUse" x="23" y="22" width="31" height="31"><path d="M48.204 27.756a1.512 1.512 0 0 0-.108 2.03c2.231 2.801 3.4 6.632 2.354 10.648-1.215 4.693-4.893 8.2-9.555 9.14-7.846 1.553-14.724-4.509-14.724-12.094 0-6.278 4.693-11.447 10.77-12.201v3.108a9.228 9.228 0 0 0-7.585 10.508c.6 4.016 3.939 7.247 7.97 7.74 5.6.692 10.386-3.678 10.386-9.155a9.167 9.167 0 0 0-1.585-5.17c-.523-.77-1.647-.815-2.308-.17l-.016.016c-.523.523-.569 1.339-.169 1.954a6.15 6.15 0 0 1 .754 5.108 6.138 6.138 0 0 1-4.523 4.262 6.154 6.154 0 0 1-7.54-6c0-2.862 1.97-5.247 4.616-5.94v3.293c-.923.539-1.538 1.508-1.538 2.647a3.086 3.086 0 0 0 3.077 3.077 3.086 3.086 0 0 0 3.077-3.077 3.028 3.028 0 0 0-1.538-2.647V23.186c0-.6-.493-1.092-1.093-1.092-8.247-.308-15.355 6.246-15.801 14.463-.554 10.078 8.323 18.186 18.478 16.001a15.487 15.487 0 0 0 11.925-11.801c1.092-4.862-.308-9.478-3.032-12.878-.569-.723-1.646-.77-2.292-.123Z" fill="#fff"/></mask></svg>