<svg width="76" height="76" viewBox="0 0 76 76" fill="none" xmlns="http://www.w3.org/2000/svg">
<rect opacity="0.136765" width="76" height="76" rx="11" fill="#717CFF"/>
<path d="M33.0693 15.7651V35H29.2725V20.1421L24.7109 21.5923V18.5996L32.6606 15.7651H33.0693ZM52.3569 15.8047V17.8481L44.9346 35H40.9268L48.3491 18.771H38.791V15.8047H52.3569Z" fill="#717CFF"/>
<path d="M34.8115 52.3467V52.8652C34.8115 53.8438 34.6738 54.7227 34.3984 55.502C34.1289 56.2754 33.7451 56.9375 33.2471 57.4883C32.749 58.0332 32.1602 58.4521 31.4805 58.7451C30.8008 59.0322 30.0508 59.1758 29.2305 59.1758C28.4043 59.1758 27.6484 59.0322 26.9629 58.7451C26.2832 58.4521 25.6914 58.0332 25.1875 57.4883C24.6895 56.9375 24.3027 56.2754 24.0273 55.502C23.7578 54.7227 23.623 53.8438 23.623 52.8652V52.3467C23.623 51.3682 23.7578 50.4893 24.0273 49.71C24.3027 48.9307 24.6865 48.2686 25.1787 47.7236C25.6768 47.1729 26.2656 46.7539 26.9453 46.4668C27.6309 46.1738 28.3867 46.0273 29.2129 46.0273C30.0332 46.0273 30.7832 46.1738 31.4629 46.4668C32.1484 46.7539 32.7402 47.1729 33.2383 47.7236C33.7363 48.2686 34.123 48.9307 34.3984 49.71C34.6738 50.4893 34.8115 51.3682 34.8115 52.3467ZM31.6826 52.8652V52.3291C31.6826 51.6963 31.627 51.1396 31.5156 50.6592C31.4102 50.1729 31.252 49.7656 31.041 49.4375C30.8301 49.1094 30.5693 48.8633 30.2588 48.6992C29.9541 48.5293 29.6055 48.4443 29.2129 48.4443C28.8027 48.4443 28.4453 48.5293 28.1406 48.6992C27.8359 48.8633 27.5811 49.1094 27.376 49.4375C27.1709 49.7656 27.0156 50.1729 26.9102 50.6592C26.8105 51.1396 26.7607 51.6963 26.7607 52.3291V52.8652C26.7607 53.4922 26.8105 54.0488 26.9102 54.5352C27.0156 55.0156 27.1709 55.4229 27.376 55.7568C27.5869 56.0908 27.8447 56.3428 28.1494 56.5127C28.46 56.6826 28.8203 56.7676 29.2305 56.7676C29.623 56.7676 29.9717 56.6826 30.2764 56.5127C30.5811 56.3428 30.8359 56.0908 31.041 55.7568C31.252 55.4229 31.4102 55.0156 31.5156 54.5352C31.627 54.0488 31.6826 53.4922 31.6826 52.8652ZM40.2871 56.8906C40.5625 56.8906 40.7969 56.8408 40.9902 56.7412C41.1895 56.6357 41.3389 56.4893 41.4385 56.3018C41.5439 56.1084 41.5938 55.877 41.5879 55.6074H44.374C44.3799 56.3223 44.2041 56.9492 43.8467 57.4883C43.4951 58.0215 43.0146 58.4375 42.4053 58.7363C41.8018 59.0293 41.1191 59.1758 40.3574 59.1758C39.6133 59.1758 38.9629 59.0557 38.4062 58.8154C37.8496 58.5693 37.3838 58.2295 37.0088 57.7959C36.6396 57.3564 36.3613 56.8438 36.1738 56.2578C35.9922 55.6719 35.9014 55.0361 35.9014 54.3506V54.1484C35.9014 53.4629 35.9922 52.8271 36.1738 52.2412C36.3613 51.6494 36.6396 51.1367 37.0088 50.7031C37.3838 50.2637 37.8467 49.9238 38.3975 49.6836C38.9541 49.4375 39.6016 49.3145 40.3398 49.3145C41.1309 49.3145 41.8281 49.4639 42.4316 49.7627C43.041 50.0615 43.5186 50.4951 43.8643 51.0635C44.21 51.6318 44.3799 52.3203 44.374 53.1289H41.5879C41.5938 52.8418 41.5498 52.584 41.4561 52.3555C41.3623 52.127 41.2158 51.9453 41.0166 51.8105C40.8232 51.6699 40.5742 51.5996 40.2695 51.5996C39.9648 51.5996 39.7188 51.667 39.5312 51.8018C39.3438 51.9365 39.2002 52.124 39.1006 52.3643C39.0068 52.5986 38.9424 52.8682 38.9072 53.1729C38.8779 53.4775 38.8633 53.8027 38.8633 54.1484V54.3506C38.8633 54.7021 38.8779 55.0332 38.9072 55.3438C38.9424 55.6484 39.0098 55.918 39.1094 56.1523C39.209 56.3809 39.3525 56.5625 39.54 56.6973C39.7275 56.8262 39.9766 56.8906 40.2871 56.8906ZM50.6494 49.4902V51.5469H44.9189V49.4902H50.6494ZM46.123 47.126H49.085V55.8975C49.085 56.1494 49.1143 56.3457 49.1729 56.4863C49.2314 56.6211 49.3311 56.7178 49.4717 56.7764C49.6182 56.8291 49.8115 56.8555 50.0518 56.8555C50.2217 56.8555 50.3623 56.8525 50.4736 56.8467C50.585 56.835 50.6904 56.8203 50.79 56.8027V58.9209C50.5381 59.0029 50.2744 59.0645 49.999 59.1055C49.7236 59.1523 49.4307 59.1758 49.1201 59.1758C48.4873 59.1758 47.9453 59.0762 47.4941 58.877C47.0488 58.6777 46.709 58.3643 46.4746 57.9365C46.2402 57.5088 46.123 56.9521 46.123 56.2666V47.126Z" fill="#717CFF"/>
</svg>
