<svg width="76" height="76" fill="none" xmlns="http://www.w3.org/2000/svg"><rect width="76" height="76" rx="38" fill="#FF5959"/><path fill-rule="evenodd" clip-rule="evenodd" d="M25.653 46.493a3.854 3.854 0 0 0 3.854 3.854h17.986a3.854 3.854 0 0 0 3.854-3.854V28.507a3.854 3.854 0 0 0-3.854-3.854H29.507a3.854 3.854 0 0 0-3.854 3.854v17.986Zm23.125 0c0 .71-.575 1.285-1.285 1.285H29.507c-.71 0-1.285-.575-1.285-1.285V28.507c0-.71.575-1.285 1.285-1.285h6.424v10.292h3.077l2.062-2.758 2.062 2.758h3.077V27.222h1.284c.71 0 1.285.575 1.285 1.285v17.986ZM38.5 27.223h5.139v6.854l-2.57-3.437-2.569 3.437v-6.855Z" fill="#2D2D2D"/><mask id="a" style="mask-type:alpha" maskUnits="userSpaceOnUse" x="25" y="24" width="27" height="27"><path fill-rule="evenodd" clip-rule="evenodd" d="M25.653 46.493a3.854 3.854 0 0 0 3.854 3.854h17.986a3.854 3.854 0 0 0 3.854-3.854V28.507a3.854 3.854 0 0 0-3.854-3.854H29.507a3.854 3.854 0 0 0-3.854 3.854v17.986Zm23.125 0c0 .71-.575 1.285-1.285 1.285H29.507c-.71 0-1.285-.575-1.285-1.285V28.507c0-.71.575-1.285 1.285-1.285h6.424v10.292h3.077l2.062-2.758 2.062 2.758h3.077V27.222h1.284c.71 0 1.285.575 1.285 1.285v17.986ZM38.5 27.223h5.139v6.854l-2.57-3.437-2.569 3.437v-6.855Z" fill="#fff"/></mask></svg>