<svg width="196" height="28" fill="none" xmlns="http://www.w3.org/2000/svg"><path d="M47.85 7.625V19h-2.632v-8.406l-2.594.758v-2l4.984-1.727h.243Zm11.797 4.648v2.079c0 .817-.097 1.528-.29 2.132-.187.604-.458 1.104-.812 1.5-.349.396-.766.69-1.25.883a4.296 4.296 0 0 1-1.601.29 4.62 4.62 0 0 1-1.313-.18 3.5 3.5 0 0 1-1.102-.563 3.623 3.623 0 0 1-.835-.953 4.618 4.618 0 0 1-.54-1.344 7.588 7.588 0 0 1-.187-1.765v-2.079c0-.822.094-1.533.281-2.132.193-.605.466-1.105.82-1.5a3.31 3.31 0 0 1 1.258-.883 4.296 4.296 0 0 1 1.602-.29c.469 0 .904.063 1.305.188.406.12.773.308 1.101.563.328.25.607.565.836.945.234.38.414.83.54 1.352.124.515.187 1.101.187 1.757Zm-2.633 2.399v-2.735c0-.364-.02-.682-.063-.953-.036-.27-.093-.5-.172-.687a1.362 1.362 0 0 0-.273-.453.953.953 0 0 0-.375-.258 1.152 1.152 0 0 0-.453-.086 1.18 1.18 0 0 0-.563.133c-.161.083-.299.219-.414.406-.114.188-.203.438-.265.75a6.497 6.497 0 0 0-.086 1.149v2.734c0 .37.018.693.054.969.042.27.1.502.172.695.078.187.172.341.282.46.109.116.234.199.375.25.14.053.294.079.46.079.204 0 .386-.042.547-.125.162-.083.3-.219.414-.406.12-.193.209-.446.266-.758.063-.318.094-.706.094-1.164Zm4.679 3.094c0-.375.135-.688.406-.938.27-.255.62-.383 1.047-.383.432 0 .781.128 1.047.383.27.25.406.563.406.938s-.135.69-.406.945c-.266.25-.615.375-1.047.375-.427 0-.776-.125-1.047-.375a1.247 1.247 0 0 1-.406-.945Zm0-6.235c0-.375.135-.687.406-.937.27-.255.62-.383 1.047-.383.432 0 .781.127 1.047.383.27.25.406.562.406.937s-.135.69-.406.946c-.266.25-.615.375-1.047.375-.427 0-.776-.125-1.047-.375a1.247 1.247 0 0 1-.406-.946Zm12.936.742v2.079c0 .817-.096 1.528-.289 2.132-.187.604-.458 1.104-.812 1.5-.35.396-.766.69-1.25.883a4.296 4.296 0 0 1-1.602.29c-.469 0-.906-.06-1.312-.18a3.5 3.5 0 0 1-1.102-.563 3.622 3.622 0 0 1-.836-.953 4.62 4.62 0 0 1-.539-1.344 7.588 7.588 0 0 1-.187-1.765v-2.079c0-.822.093-1.533.28-2.132.194-.605.467-1.105.821-1.5.354-.396.774-.69 1.258-.883a4.296 4.296 0 0 1 1.602-.29c.468 0 .903.063 1.304.188a3.34 3.34 0 0 1 1.938 1.508c.234.38.414.83.539 1.352.125.515.187 1.101.187 1.757Zm-2.633 2.399v-2.735c0-.364-.02-.682-.062-.953-.036-.27-.094-.5-.172-.687a1.364 1.364 0 0 0-.273-.453.952.952 0 0 0-.375-.258 1.152 1.152 0 0 0-.453-.086 1.18 1.18 0 0 0-.563.133c-.161.083-.3.219-.414.406-.114.188-.203.438-.266.75a6.498 6.498 0 0 0-.086 1.149v2.734c0 .37.019.693.055.969.042.27.1.502.172.695.078.187.172.341.281.46a.99.99 0 0 0 .375.25c.14.053.295.079.461.079.203 0 .386-.042.547-.125.162-.083.3-.219.414-.406.12-.193.209-.446.266-.758.062-.318.093-.706.093-1.164Zm12.359-2.399v2.079c0 .817-.096 1.528-.289 2.132-.188.604-.458 1.104-.813 1.5-.349.396-.765.69-1.25.883a4.296 4.296 0 0 1-1.601.29c-.469 0-.906-.06-1.313-.18a3.5 3.5 0 0 1-1.101-.563 3.622 3.622 0 0 1-.836-.953 4.618 4.618 0 0 1-.54-1.344 7.588 7.588 0 0 1-.187-1.765v-2.079c0-.822.094-1.533.282-2.132.192-.605.466-1.105.82-1.5.354-.396.773-.69 1.258-.883a4.296 4.296 0 0 1 1.601-.29c.469 0 .904.063 1.305.188.406.12.773.308 1.102.563.328.25.606.565.835.945.235.38.415.83.54 1.352.124.515.187 1.101.187 1.757Zm-2.633 2.399v-2.735c0-.364-.02-.682-.062-.953-.037-.27-.094-.5-.172-.687a1.364 1.364 0 0 0-.274-.453.953.953 0 0 0-.375-.258 1.152 1.152 0 0 0-.453-.086 1.18 1.18 0 0 0-.562.133c-.162.083-.3.219-.414.406-.115.188-.203.438-.266.75a6.498 6.498 0 0 0-.086 1.149v2.734c0 .37.018.693.055.969.041.27.099.502.172.695.078.187.172.341.281.46a.99.99 0 0 0 .375.25c.14.053.294.079.46.079.204 0 .386-.042.548-.125.161-.083.3-.219.414-.406.12-.193.208-.446.266-.758.062-.318.093-.706.093-1.164Zm13.874-4.656L92.822 19h-2.945l4.18-11.375h1.867l-.329 2.39ZM97.892 19l-2.78-8.984-.36-2.391h1.89L100.845 19h-2.953Zm-.109-4.242v2.117h-5.836v-2.117h5.836Zm5.702-7.133h2.235l2.539 7.914 2.539-7.914h2.234L109.165 19h-1.813l-3.867-11.375Zm-1.359 0h2.312l.43 8.719V19h-2.742V7.625Zm9.953 0h2.32V19h-2.75v-2.656l.43-8.719Zm13.967 5.453v2.04h-4.695v-2.04h4.695Zm14.834 3.89V19h-7.937v-1.719l3.656-3.843c.323-.37.583-.701.781-.993.198-.297.341-.565.43-.804.094-.24.141-.456.141-.649 0-.328-.05-.601-.149-.82a1.048 1.048 0 0 0-.422-.508 1.253 1.253 0 0 0-.679-.172c-.271 0-.508.078-.711.235-.204.156-.362.37-.477.64a2.43 2.43 0 0 0-.164.914h-2.641c0-.698.17-1.336.508-1.914.344-.578.82-1.039 1.43-1.383.609-.349 1.315-.523 2.117-.523.839 0 1.542.13 2.109.39.568.261.995.639 1.282 1.133.291.49.437 1.081.437 1.774 0 .396-.062.776-.187 1.14a4.917 4.917 0 0 1-.539 1.086 9.37 9.37 0 0 1-.86 1.094c-.333.375-.713.774-1.14 1.195l-1.469 1.696h4.484Zm2.007.798c0-.375.136-.688.406-.938.271-.255.62-.383 1.047-.383.433 0 .782.128 1.047.383.271.25.406.563.406.938s-.135.69-.406.945c-.265.25-.614.375-1.047.375-.427 0-.776-.125-1.047-.375a1.25 1.25 0 0 1-.406-.945Zm0-6.235c0-.375.136-.687.406-.937.271-.255.62-.383 1.047-.383.433 0 .782.127 1.047.383.271.25.406.562.406.937s-.135.69-.406.946c-.265.25-.614.375-1.047.375-.427 0-.776-.125-1.047-.375a1.25 1.25 0 0 1-.406-.946Zm12.937.742v2.079c0 .817-.097 1.528-.289 2.132-.188.604-.459 1.104-.813 1.5a3.24 3.24 0 0 1-1.25.883 4.293 4.293 0 0 1-1.601.29c-.469 0-.907-.06-1.313-.18a3.498 3.498 0 0 1-1.101-.563 3.615 3.615 0 0 1-.836-.953 4.601 4.601 0 0 1-.539-1.344 7.587 7.587 0 0 1-.188-1.765v-2.079c0-.822.094-1.533.281-2.132.193-.605.466-1.105.821-1.5a3.31 3.31 0 0 1 1.257-.883 4.302 4.302 0 0 1 1.602-.29c.469 0 .904.063 1.305.188.406.12.773.308 1.101.563.328.25.607.565.836.945.235.38.414.83.539 1.352.125.515.188 1.101.188 1.757Zm-2.633 2.399v-2.735a6.3 6.3 0 0 0-.063-.953c-.036-.27-.093-.5-.171-.687a1.355 1.355 0 0 0-.274-.453.947.947 0 0 0-.375-.258 1.149 1.149 0 0 0-.453-.086c-.208 0-.396.044-.562.133-.162.083-.3.219-.415.406a2.322 2.322 0 0 0-.265.75 6.526 6.526 0 0 0-.086 1.149v2.734c0 .37.018.693.055.969.041.27.099.502.171.695.079.187.172.341.282.46a.984.984 0 0 0 .375.25c.14.053.294.079.461.079.203 0 .385-.042.547-.125a1.07 1.07 0 0 0 .414-.406c.119-.193.208-.446.265-.758.063-.318.094-.706.094-1.164Zm12.358-2.399v2.079c0 .817-.096 1.528-.289 2.132-.187.604-.458 1.104-.812 1.5-.349.396-.766.69-1.25.883a4.294 4.294 0 0 1-1.602.29 4.62 4.62 0 0 1-1.312-.18 3.503 3.503 0 0 1-1.102-.563 3.633 3.633 0 0 1-.836-.953 4.63 4.63 0 0 1-.539-1.344 7.59 7.59 0 0 1-.187-1.765v-2.079c0-.822.094-1.533.281-2.132.193-.605.466-1.105.82-1.5a3.32 3.32 0 0 1 1.258-.883 4.298 4.298 0 0 1 1.602-.29c.468 0 .903.063 1.304.188.407.12.774.308 1.102.563.328.25.607.565.836.945.234.38.414.83.539 1.352.125.515.187 1.101.187 1.757Zm-2.632 2.399v-2.735a6.3 6.3 0 0 0-.063-.953c-.036-.27-.094-.5-.172-.687a1.37 1.37 0 0 0-.273-.453.962.962 0 0 0-.375-.258 1.156 1.156 0 0 0-.453-.086 1.07 1.07 0 0 0-.977.54 2.322 2.322 0 0 0-.265.75 6.431 6.431 0 0 0-.086 1.148v2.734c0 .37.018.693.054.969.042.27.099.502.172.695.078.187.172.341.281.46.11.116.235.199.375.25.141.053.295.079.461.079.203 0 .386-.042.547-.125.162-.083.3-.219.414-.406.12-.193.209-.446.266-.758.062-.318.094-.706.094-1.164Zm13.592.469h-2.828v-2.118h2.828c.385 0 .698-.065.937-.195.24-.13.414-.31.524-.539a1.78 1.78 0 0 0 .171-.789c0-.313-.057-.602-.171-.867a1.402 1.402 0 0 0-.524-.64c-.239-.167-.552-.25-.937-.25h-1.797V19h-2.742V7.625h4.539c.911 0 1.695.167 2.351.5.662.333 1.17.792 1.524 1.375.354.578.531 1.24.531 1.984 0 .735-.177 1.375-.531 1.922-.354.547-.862.974-1.524 1.281-.656.303-1.44.454-2.351.454Zm7.686-7.516h2.235l2.539 7.914 2.539-7.914h2.234L189.875 19h-1.813l-3.867-11.375Zm-1.359 0h2.312l.43 8.719V19h-2.742V7.625Zm9.953 0h2.32V19h-2.75v-2.656l.43-8.719Z" fill="#373737"/><path fill-rule="evenodd" clip-rule="evenodd" d="M40 22.333a8.333 8.333 0 1 0 0-16.666 8.333 8.333 0 0 0 0 16.666Zm0-1.666a6.667 6.667 0 1 0 0-13.334 6.667 6.667 0 0 0 0 13.334Zm-.833-10.834H37.5v5.834h5.833V14h-4.166V9.833Z" fill="#2D2D2D"/><mask id="a" style="mask-type:alpha" maskUnits="userSpaceOnUse" x="31" y="5" width="18" height="18"><path fill-rule="evenodd" clip-rule="evenodd" d="M40 22.333a8.333 8.333 0 1 0 0-16.666 8.333 8.333 0 0 0 0 16.666Zm0-1.666a6.667 6.667 0 1 0 0-13.334 6.667 6.667 0 0 0 0 13.334Zm-.833-10.834H37.5v5.834h5.833V14h-4.166V9.833Z" fill="#fff"/></mask></svg>